<?xml version="1.0" encoding="UTF-8" standalone="no"?>
<svg
   xmlns:dc="http://purl.org/dc/elements/1.1/"
   xmlns:cc="http://creativecommons.org/ns#"
   xmlns:rdf="http://www.w3.org/1999/02/22-rdf-syntax-ns#"
   xmlns:svg="http://www.w3.org/2000/svg"
   xmlns="http://www.w3.org/2000/svg"
   xmlns:sodipodi="http://sodipodi.sourceforge.net/DTD/sodipodi-0.dtd"
   xmlns:inkscape="http://www.inkscape.org/namespaces/inkscape"
   version="1.1"
   id="svg3787"
   viewBox="0 0 427.1157 408.75623"
   height="115.36009mm"
   width="120.54154mm"
   inkscape:version="0.91 r13725"
   sodipodi:docname="färglogo med text.svg"
   inkscape:export-filename="/Users/tger/Library/Mobile Documents/com~apple~CloudDocs/Svea Soba/logo/blå logo utan text2.png"
   inkscape:export-xdpi="300"
   inkscape:export-ydpi="300">
  <sodipodi:namedview
     pagecolor="#ffffff"
     bordercolor="#666666"
     borderopacity="1"
     objecttolerance="10"
     gridtolerance="10"
     guidetolerance="10"
     inkscape:pageopacity="0"
     inkscape:pageshadow="2"
     inkscape:window-width="1276"
     inkscape:window-height="756"
     id="namedview23"
     showgrid="false"
     inkscape:zoom="1"
     inkscape:cx="274.95208"
     inkscape:cy="192.24377"
     inkscape:window-x="4"
     inkscape:window-y="0"
     inkscape:window-maximized="1"
     inkscape:current-layer="svg3787" />
  <defs
     id="defs3789" />
  <metadata
     id="metadata3792">
    <rdf:RDF>
      <cc:Work
         rdf:about="">
        <dc:format>image/svg+xml</dc:format>
        <dc:type
           rdf:resource="http://purl.org/dc/dcmitype/StillImage" />
        <dc:title />
      </cc:Work>
    </rdf:RDF>
  </metadata>
  <g
     transform="translate(-111.46453,-286.64789)"
     id="layer1"
     inkscape:export-xdpi="300"
     inkscape:export-ydpi="300">
    <rect
       transform="scale(1,-1)"
       y="-695.40411"
       x="111.42857"
       height="408.75623"
       width="427.11569"
       id="rect5135"
       style="fill:#00427e;fill-opacity:1" />
  </g>
  <g
     inkscape:groupmode="layer"
     id="layer2"
     inkscape:label="GUIDE"
     style="display:none">
    <path
       style="fill:none;fill-rule:evenodd;stroke:#ff0009;stroke-width:1px;stroke-linecap:butt;stroke-linejoin:miter;stroke-opacity:1"
       d="m 99.068146,89.771518 c 0,0 1.183404,81.097532 9.192384,114.551302 5.52766,22.37939 13.80265,38.75393 23.33453,65.76093"
       id="path4173"
       inkscape:connector-curvature="0"
       sodipodi:nodetypes="ccc" />
    <path
       style="fill:none;fill-rule:evenodd;stroke:#f90d1b;stroke-width:1;stroke-linecap:butt;stroke-linejoin:miter;stroke-miterlimit:4;stroke-dasharray:none;stroke-opacity:1"
       d="m 131.2415,269.7302 192.33305,0"
       id="path4177"
       inkscape:connector-curvature="0" />
    <path
       style="display:inline;fill:none;fill-rule:evenodd;stroke:#ff0009;stroke-width:1px;stroke-linecap:butt;stroke-linejoin:miter;stroke-opacity:1"
       d="m 337.27571,90.478625 c 0,0 -1.18341,81.097525 -9.19239,114.551295 -5.52766,22.37939 -13.80265,38.75393 -23.33452,65.76093"
       id="path4173-8"
       inkscape:connector-curvature="0"
       sodipodi:nodetypes="ccc" />
  </g>
  <g
     id="g5123"
     transform="matrix(1.0715836,0,0,1.0715836,-20.582152,-20.984849)">
    <g
       id="layer4"
       transform="translate(-111.42857,-286.64789)" />
    <path
       sodipodi:nodetypes="sscsscs"
       style="fill:#ffffff;fill-opacity:1;fill-rule:evenodd;stroke:none;stroke-width:1px;stroke-linecap:butt;stroke-linejoin:miter;stroke-opacity:1"
       d="m 194.91122,113.80052 c -3.84279,5.24735 -18.71544,19.77825 -10.03324,45.39848 3.96901,11.71212 14.20268,26.23615 34.53129,25.6109 20.98198,0.33672 29.8106,-13.11916 33.30847,-25.54279 6.8084,-24.18189 -7.63513,-39.52514 -11.85613,-45.9651 -3.04555,-4.64658 -14.7157,-21.468535 -21.87516,-29.695597 -8.20752,8.570871 -20.23245,24.946757 -24.07523,30.194107 z"
       id="use4316"
       inkscape:connector-curvature="0" />
    <path
       sodipodi:nodetypes="sascssccsacsss"
       inkscape:connector-curvature="0"
       id="path3367-1"
       d="m 256.82955,176.0748 c 3.8613,0.10615 7.95217,1.37015 8.86917,4.56644 1.47059,5.1259 -0.70243,10.10806 -8.17773,13.75 -5.4363,2.64854 -12.06603,2.28468 -16.01176,0.81442 -1.33182,1.66783 -1.99893,2.49378 -5.74727,7.62511 -5.66322,7.75273 -8.22619,20.77132 -8.52031,27.51356 -0.81163,18.60512 8.44892,28.17702 19.29125,39.45321 l -22.96507,0.14835 c -2.85735,-22.97152 -3.07297,-32.85454 0.78994,-47.94837 3.04341,-11.89173 6.26021,-15.17479 10.27838,-22.30844 1.14429,-2.03152 2.78617,-4.06867 3.91605,-5.79592 -0.0929,-0.13845 -0.19658,-0.26724 -0.27734,-0.41602 -2.56891,-4.73264 1.90751,-11.02212 9.38281,-14.66406 3.27045,-1.59335 6.16864,-2.82084 9.17188,-2.73828 z"
       style="color:#000000;font-style:normal;font-variant:normal;font-weight:normal;font-stretch:normal;font-size:medium;line-height:normal;font-family:sans-serif;text-indent:0;text-align:start;text-decoration:none;text-decoration-line:none;text-decoration-style:solid;text-decoration-color:#000000;letter-spacing:normal;word-spacing:normal;text-transform:none;direction:ltr;block-progression:tb;writing-mode:lr-tb;baseline-shift:baseline;text-anchor:start;white-space:normal;clip-rule:nonzero;display:inline;overflow:visible;visibility:visible;opacity:1;isolation:auto;mix-blend-mode:normal;color-interpolation:sRGB;color-interpolation-filters:linearRGB;solid-color:#000000;solid-opacity:1;fill:#ffffff;fill-opacity:1;fill-rule:evenodd;stroke:none;stroke-width:5.67565584;stroke-linecap:butt;stroke-linejoin:miter;stroke-miterlimit:4;stroke-dasharray:none;stroke-dashoffset:0;stroke-opacity:1;color-rendering:auto;image-rendering:auto;shape-rendering:auto;text-rendering:auto;enable-background:accumulate" />
    <path
       sodipodi:nodetypes="sscsscs"
       style="fill:#ffffff;fill-opacity:1;fill-rule:evenodd;stroke:none;stroke-width:1px;stroke-linecap:butt;stroke-linejoin:miter;stroke-opacity:1"
       d="m 318.02772,237.40844 c -4.02397,9.57011 -9.50637,32.15857 -33.10447,31.98926 -13.65279,-0.0979 -30.32317,2.27836 -42.59063,-15.32009 -13.53776,-17.51021 -10.52349,-34.46406 -0.26979,-44.44899 14.09266,-13.72326 23.456,-15.26642 56.25858,-16.69362 6.08257,-0.26464 20.65561,-2.20936 32.51094,-9.06028 -2.21709,22.14369 -10.04907,46.98025 -12.80463,53.53372 z"
       id="path4470-8"
       inkscape:connector-curvature="0" />
    <path
       sodipodi:nodetypes="sscascs"
       id="path4468-5"
       d="m 335.32031,149.74545 c -1.13995,16.91671 -9.18215,25.89099 -22.17542,32.74785 -12.07489,6.37221 -33.79347,4.65114 -48.73739,-10.73962 -9.68337,-10.34889 -6.43212,-22.41489 -2.44482,-32.53215 5.58101,-14.16112 30.87402,-29.74795 33.56824,-30.95704 7.65484,-3.43528 29.88407,-14.900391 41.67682,-16.245291 -0.39663,12.876031 -1.40946,50.633111 -1.88743,57.726251 z"
       style="fill:#ffffff;fill-opacity:1;fill-rule:evenodd;stroke:none;stroke-width:1px;stroke-linecap:butt;stroke-linejoin:miter;stroke-opacity:1"
       inkscape:connector-curvature="0" />
    <path
       sodipodi:nodetypes="sascssccsacsss"
       inkscape:connector-curvature="0"
       id="path3367-1-9"
       d="m 179.93975,175.37869 c -3.8613,0.10615 -7.95217,1.37015 -8.86917,4.56644 -1.47059,5.1259 0.70243,10.10806 8.17773,13.75 5.4363,2.64854 12.06603,2.28468 16.01176,0.81442 1.33182,1.66783 1.99893,2.49378 5.74727,7.62511 5.66322,7.75273 8.22619,20.77132 8.52031,27.51356 0.81163,18.60512 -8.44892,28.17702 -19.29125,39.45321 l 22.96507,0.14835 c 2.85735,-22.97152 3.07297,-32.85454 -0.78994,-47.94837 -3.04341,-11.89173 -6.26021,-15.17479 -10.27838,-22.30844 -1.14429,-2.03152 -2.78617,-4.06867 -3.91605,-5.79592 0.0929,-0.13845 0.19658,-0.26724 0.27734,-0.41602 2.56891,-4.73264 -1.90751,-11.02212 -9.38281,-14.66406 -3.27045,-1.59335 -6.16864,-2.82084 -9.17188,-2.73828 z"
       style="color:#000000;font-style:normal;font-variant:normal;font-weight:normal;font-stretch:normal;font-size:medium;line-height:normal;font-family:sans-serif;text-indent:0;text-align:start;text-decoration:none;text-decoration-line:none;text-decoration-style:solid;text-decoration-color:#000000;letter-spacing:normal;word-spacing:normal;text-transform:none;direction:ltr;block-progression:tb;writing-mode:lr-tb;baseline-shift:baseline;text-anchor:start;white-space:normal;clip-rule:nonzero;display:inline;overflow:visible;visibility:visible;opacity:1;isolation:auto;mix-blend-mode:normal;color-interpolation:sRGB;color-interpolation-filters:linearRGB;solid-color:#000000;solid-opacity:1;fill:#ffffff;fill-opacity:1;fill-rule:evenodd;stroke:none;stroke-width:5.67565584;stroke-linecap:butt;stroke-linejoin:miter;stroke-miterlimit:4;stroke-dasharray:none;stroke-dashoffset:0;stroke-opacity:1;color-rendering:auto;image-rendering:auto;shape-rendering:auto;text-rendering:auto;enable-background:accumulate" />
    <path
       sodipodi:nodetypes="sscascs"
       id="path4468-5-3"
       d="m 101.61068,147.62413 c 1.13995,16.91671 9.18215,25.89099 22.17542,32.74785 12.07489,6.37221 33.79347,4.65114 48.73739,-10.73962 9.68337,-10.34889 6.43212,-22.41489 2.44482,-32.53215 -5.58101,-14.16112 -30.87402,-29.74795 -33.56824,-30.95704 -7.65484,-3.43528 -29.88407,-14.900396 -41.676819,-16.245296 0.396629,12.876036 1.409459,50.633116 1.887429,57.726256 z"
       style="fill:#ffffff;fill-opacity:1;fill-rule:evenodd;stroke:none;stroke-width:1px;stroke-linecap:butt;stroke-linejoin:miter;stroke-opacity:1"
       inkscape:connector-curvature="0" />
    <path
       sodipodi:nodetypes="sscsscs"
       style="fill:#ffffff;fill-opacity:1;fill-rule:evenodd;stroke:none;stroke-width:1px;stroke-linecap:butt;stroke-linejoin:miter;stroke-opacity:1"
       d="m 117.80742,237.41918 c 4.02397,9.57011 9.50637,32.15857 33.10447,31.98926 13.65279,-0.0979 30.32317,2.27836 42.59063,-15.32009 13.53776,-17.51021 10.52349,-34.46406 0.26979,-44.44899 -14.09266,-13.72326 -23.456,-15.26642 -56.25858,-16.69362 -6.08257,-0.26464 -20.65561,-2.20936 -32.51094,-9.06028 2.21709,22.14369 10.04907,46.98025 12.80463,53.53372 z"
       id="path4470-8-6"
       inkscape:connector-curvature="0" />
  </g>
  <text
     xml:space="preserve"
     style="font-style:normal;font-variant:normal;font-weight:bold;font-stretch:normal;font-size:60px;line-height:125%;font-family:'Helvetica Neue';-inkscape-font-specification:'Helvetica Neue, Bold';text-align:center;letter-spacing:0px;word-spacing:0px;writing-mode:lr-tb;text-anchor:middle;fill:#ffffff;fill-opacity:1;stroke:none;stroke-width:1px;stroke-linecap:butt;stroke-linejoin:miter;stroke-opacity:1"
     x="212.60945"
     y="354.64529"
     id="text3351"
     sodipodi:linespacing="125%"><tspan
       sodipodi:role="line"
       x="212.60945"
       y="354.64529"
       id="tspan3353"><tspan
         x="212.60945"
         y="354.64529"
         style="font-style:normal;font-variant:normal;font-weight:bold;font-stretch:normal;font-size:60px;line-height:125%;font-family:'Helvetica Neue';-inkscape-font-specification:'Helvetica Neue, Bold';text-align:center;writing-mode:lr-tb;text-anchor:middle"
         id="tspan3355">SVEA SOBA</tspan></tspan></text>
</svg>
